<mxfile host="Electron" agent="Mozilla/5.0 (X11; Linux x86_64) AppleWebKit/537.36 (KHTML, like Gecko) draw.io/26.0.4 Chrome/128.0.6613.186 Electron/32.2.5 Safari/537.36" version="26.0.4">
  <diagram name="Page-1" id="yqMeZ-6IOeo74dJejPlR">
    <mxGraphModel dx="1207" dy="1198" grid="1" gridSize="10" guides="1" tooltips="1" connect="1" arrows="1" fold="1" page="1" pageScale="1" pageWidth="850" pageHeight="1100" math="0" shadow="0">
      <root>
        <mxCell id="0" />
        <mxCell id="1" parent="0" />
        <mxCell id="HnUG6Xi3VZmbePIOUU0O-1" value="Region" style="points=[[0,0],[0.25,0],[0.5,0],[0.75,0],[1,0],[1,0.25],[1,0.5],[1,0.75],[1,1],[0.75,1],[0.5,1],[0.25,1],[0,1],[0,0.75],[0,0.5],[0,0.25]];outlineConnect=0;gradientColor=none;html=1;whiteSpace=wrap;fontSize=12;fontStyle=0;container=1;pointerEvents=0;collapsible=0;recursiveResize=0;shape=mxgraph.aws4.group;grIcon=mxgraph.aws4.group_region;strokeColor=#00A4A6;fillColor=none;verticalAlign=top;align=left;spacingLeft=30;fontColor=#147EBA;dashed=1;" vertex="1" parent="1">
          <mxGeometry x="30" y="340" width="330" height="500" as="geometry" />
        </mxCell>
        <mxCell id="HnUG6Xi3VZmbePIOUU0O-2" value="VPC" style="points=[[0,0],[0.25,0],[0.5,0],[0.75,0],[1,0],[1,0.25],[1,0.5],[1,0.75],[1,1],[0.75,1],[0.5,1],[0.25,1],[0,1],[0,0.75],[0,0.5],[0,0.25]];outlineConnect=0;gradientColor=none;html=1;whiteSpace=wrap;fontSize=12;fontStyle=0;container=1;pointerEvents=0;collapsible=0;recursiveResize=0;shape=mxgraph.aws4.group;grIcon=mxgraph.aws4.group_vpc2;strokeColor=#8C4FFF;fillColor=none;verticalAlign=top;align=left;spacingLeft=30;fontColor=#AAB7B8;dashed=0;" vertex="1" parent="HnUG6Xi3VZmbePIOUU0O-1">
          <mxGeometry x="10" y="40" width="250" height="440" as="geometry" />
        </mxCell>
        <mxCell id="HnUG6Xi3VZmbePIOUU0O-7" value="Availability Zone A" style="fillColor=none;strokeColor=#147EBA;dashed=1;verticalAlign=top;fontStyle=0;fontColor=#147EBA;whiteSpace=wrap;html=1;" vertex="1" parent="HnUG6Xi3VZmbePIOUU0O-2">
          <mxGeometry x="20" y="40" width="150" height="180" as="geometry" />
        </mxCell>
        <mxCell id="HnUG6Xi3VZmbePIOUU0O-10" value="Availability Zone B" style="fillColor=none;strokeColor=#147EBA;dashed=1;verticalAlign=top;fontStyle=0;fontColor=#147EBA;whiteSpace=wrap;html=1;" vertex="1" parent="HnUG6Xi3VZmbePIOUU0O-2">
          <mxGeometry x="20" y="240" width="150" height="180" as="geometry" />
        </mxCell>
        <mxCell id="HnUG6Xi3VZmbePIOUU0O-4" value="Private subnet" style="points=[[0,0],[0.25,0],[0.5,0],[0.75,0],[1,0],[1,0.25],[1,0.5],[1,0.75],[1,1],[0.75,1],[0.5,1],[0.25,1],[0,1],[0,0.75],[0,0.5],[0,0.25]];outlineConnect=0;gradientColor=none;html=1;whiteSpace=wrap;fontSize=12;fontStyle=0;container=1;pointerEvents=0;collapsible=0;recursiveResize=0;shape=mxgraph.aws4.group;grIcon=mxgraph.aws4.group_security_group;grStroke=0;strokeColor=#00A4A6;fillColor=#E6F6F7;verticalAlign=top;align=left;spacingLeft=30;fontColor=#147EBA;dashed=0;" vertex="1" parent="HnUG6Xi3VZmbePIOUU0O-2">
          <mxGeometry x="30" y="80" width="130" height="120" as="geometry" />
        </mxCell>
        <mxCell id="HnUG6Xi3VZmbePIOUU0O-5" value="EC2 Instances" style="sketch=0;outlineConnect=0;fontColor=#232F3E;gradientColor=none;fillColor=#ED7100;strokeColor=none;dashed=0;verticalLabelPosition=bottom;verticalAlign=top;align=center;html=1;fontSize=12;fontStyle=0;aspect=fixed;pointerEvents=1;shape=mxgraph.aws4.instances;" vertex="1" parent="HnUG6Xi3VZmbePIOUU0O-4">
          <mxGeometry x="41" y="36" width="48" height="48" as="geometry" />
        </mxCell>
        <mxCell id="HnUG6Xi3VZmbePIOUU0O-8" value="Private subnet" style="points=[[0,0],[0.25,0],[0.5,0],[0.75,0],[1,0],[1,0.25],[1,0.5],[1,0.75],[1,1],[0.75,1],[0.5,1],[0.25,1],[0,1],[0,0.75],[0,0.5],[0,0.25]];outlineConnect=0;gradientColor=none;html=1;whiteSpace=wrap;fontSize=12;fontStyle=0;container=1;pointerEvents=0;collapsible=0;recursiveResize=0;shape=mxgraph.aws4.group;grIcon=mxgraph.aws4.group_security_group;grStroke=0;strokeColor=#00A4A6;fillColor=#E6F6F7;verticalAlign=top;align=left;spacingLeft=30;fontColor=#147EBA;dashed=0;" vertex="1" parent="HnUG6Xi3VZmbePIOUU0O-2">
          <mxGeometry x="30" y="280" width="130" height="120" as="geometry" />
        </mxCell>
        <mxCell id="HnUG6Xi3VZmbePIOUU0O-9" value="EC2 Instances" style="sketch=0;outlineConnect=0;fontColor=#232F3E;gradientColor=none;fillColor=#ED7100;strokeColor=none;dashed=0;verticalLabelPosition=bottom;verticalAlign=top;align=center;html=1;fontSize=12;fontStyle=0;aspect=fixed;pointerEvents=1;shape=mxgraph.aws4.instances;" vertex="1" parent="HnUG6Xi3VZmbePIOUU0O-8">
          <mxGeometry x="40" y="36" width="54" height="54" as="geometry" />
        </mxCell>
        <mxCell id="HnUG6Xi3VZmbePIOUU0O-12" value="Virtual Private Gateway&lt;div&gt;(VPN Gateway)&lt;/div&gt;" style="sketch=0;outlineConnect=0;fontColor=#232F3E;gradientColor=none;fillColor=#8C4FFF;strokeColor=none;dashed=0;verticalLabelPosition=bottom;verticalAlign=top;align=center;html=1;fontSize=12;fontStyle=0;aspect=fixed;pointerEvents=1;shape=mxgraph.aws4.vpn_gateway;" vertex="1" parent="HnUG6Xi3VZmbePIOUU0O-1">
          <mxGeometry x="220" y="230" width="78" height="78" as="geometry" />
        </mxCell>
        <mxCell id="HnUG6Xi3VZmbePIOUU0O-3" value="Corporate data center" style="points=[[0,0],[0.25,0],[0.5,0],[0.75,0],[1,0],[1,0.25],[1,0.5],[1,0.75],[1,1],[0.75,1],[0.5,1],[0.25,1],[0,1],[0,0.75],[0,0.5],[0,0.25]];outlineConnect=0;gradientColor=none;html=1;whiteSpace=wrap;fontSize=12;fontStyle=0;container=1;pointerEvents=0;collapsible=0;recursiveResize=0;shape=mxgraph.aws4.group;grIcon=mxgraph.aws4.group_corporate_data_center;strokeColor=#7D8998;fillColor=none;verticalAlign=top;align=left;spacingLeft=30;fontColor=#5A6C86;dashed=0;" vertex="1" parent="1">
          <mxGeometry x="630" y="340" width="190" height="500" as="geometry" />
        </mxCell>
        <mxCell id="HnUG6Xi3VZmbePIOUU0O-13" value="Mobile Client" style="sketch=0;outlineConnect=0;fontColor=#232F3E;gradientColor=none;fillColor=#232F3D;strokeColor=none;dashed=0;verticalLabelPosition=bottom;verticalAlign=top;align=center;html=1;fontSize=12;fontStyle=0;aspect=fixed;pointerEvents=1;shape=mxgraph.aws4.mobile_client;" vertex="1" parent="HnUG6Xi3VZmbePIOUU0O-3">
          <mxGeometry x="127.75" y="61.5" width="41" height="78" as="geometry" />
        </mxCell>
        <mxCell id="HnUG6Xi3VZmbePIOUU0O-14" value="Client" style="sketch=0;outlineConnect=0;fontColor=#232F3E;gradientColor=none;fillColor=#232F3D;strokeColor=none;dashed=0;verticalLabelPosition=bottom;verticalAlign=top;align=center;html=1;fontSize=12;fontStyle=0;aspect=fixed;pointerEvents=1;shape=mxgraph.aws4.client;" vertex="1" parent="HnUG6Xi3VZmbePIOUU0O-3">
          <mxGeometry x="19.25" y="63.5" width="78" height="76" as="geometry" />
        </mxCell>
        <mxCell id="HnUG6Xi3VZmbePIOUU0O-15" value="Server" style="sketch=0;outlineConnect=0;fontColor=#232F3E;gradientColor=none;fillColor=#232F3D;strokeColor=none;dashed=0;verticalLabelPosition=bottom;verticalAlign=top;align=center;html=1;fontSize=12;fontStyle=0;aspect=fixed;pointerEvents=1;shape=mxgraph.aws4.traditional_server;" vertex="1" parent="HnUG6Xi3VZmbePIOUU0O-3">
          <mxGeometry x="30" y="380" width="45" height="78" as="geometry" />
        </mxCell>
        <mxCell id="HnUG6Xi3VZmbePIOUU0O-16" value="Server" style="sketch=0;outlineConnect=0;fontColor=#232F3E;gradientColor=none;fillColor=#232F3D;strokeColor=none;dashed=0;verticalLabelPosition=bottom;verticalAlign=top;align=center;html=1;fontSize=12;fontStyle=0;aspect=fixed;pointerEvents=1;shape=mxgraph.aws4.traditional_server;" vertex="1" parent="HnUG6Xi3VZmbePIOUU0O-3">
          <mxGeometry x="110" y="380" width="45" height="78" as="geometry" />
        </mxCell>
        <mxCell id="HnUG6Xi3VZmbePIOUU0O-19" value="Customer Gateway" style="sketch=0;outlineConnect=0;fontColor=#232F3E;gradientColor=none;fillColor=#8C4FFF;strokeColor=none;dashed=0;verticalLabelPosition=bottom;verticalAlign=top;align=center;html=1;fontSize=12;fontStyle=0;aspect=fixed;pointerEvents=1;shape=mxgraph.aws4.customer_gateway;" vertex="1" parent="HnUG6Xi3VZmbePIOUU0O-3">
          <mxGeometry x="-40" y="230" width="78" height="78" as="geometry" />
        </mxCell>
        <mxCell id="HnUG6Xi3VZmbePIOUU0O-24" style="edgeStyle=orthogonalEdgeStyle;rounded=0;orthogonalLoop=1;jettySize=auto;html=1;" edge="1" parent="1" source="HnUG6Xi3VZmbePIOUU0O-17" target="HnUG6Xi3VZmbePIOUU0O-19">
          <mxGeometry relative="1" as="geometry" />
        </mxCell>
        <mxCell id="HnUG6Xi3VZmbePIOUU0O-17" value="Internet" style="sketch=0;outlineConnect=0;fontColor=#232F3E;gradientColor=none;fillColor=#232F3D;strokeColor=none;dashed=0;verticalLabelPosition=bottom;verticalAlign=top;align=center;html=1;fontSize=12;fontStyle=0;aspect=fixed;pointerEvents=1;shape=mxgraph.aws4.internet;" vertex="1" parent="1">
          <mxGeometry x="470" y="585" width="78" height="48" as="geometry" />
        </mxCell>
        <mxCell id="HnUG6Xi3VZmbePIOUU0O-21" value="AWS Site-to-Site&lt;div&gt;VPN&lt;/div&gt;" style="sketch=0;points=[[0,0,0],[0.25,0,0],[0.5,0,0],[0.75,0,0],[1,0,0],[0,1,0],[0.25,1,0],[0.5,1,0],[0.75,1,0],[1,1,0],[0,0.25,0],[0,0.5,0],[0,0.75,0],[1,0.25,0],[1,0.5,0],[1,0.75,0]];outlineConnect=0;fontColor=#232F3E;fillColor=#8C4FFF;strokeColor=#ffffff;dashed=0;verticalLabelPosition=bottom;verticalAlign=top;align=center;html=1;fontSize=12;fontStyle=0;aspect=fixed;shape=mxgraph.aws4.resourceIcon;resIcon=mxgraph.aws4.site_to_site_vpn;" vertex="1" parent="1">
          <mxGeometry x="370" y="490" width="78" height="78" as="geometry" />
        </mxCell>
        <mxCell id="HnUG6Xi3VZmbePIOUU0O-23" style="edgeStyle=orthogonalEdgeStyle;rounded=0;orthogonalLoop=1;jettySize=auto;html=1;" edge="1" parent="1" source="HnUG6Xi3VZmbePIOUU0O-12" target="HnUG6Xi3VZmbePIOUU0O-17">
          <mxGeometry relative="1" as="geometry" />
        </mxCell>
      </root>
    </mxGraphModel>
  </diagram>
</mxfile>
